<?xml version="1.0" standalone="no"?>
<!DOCTYPE svg PUBLIC "-//W3C//DTD SVG 20010904//EN"
 "http://www.w3.org/TR/2001/REC-SVG-20010904/DTD/svg10.dtd">
<svg version="1.0" xmlns="http://www.w3.org/2000/svg"
 width="700.000000pt" height="700.000000pt" viewBox="0 0 700.000000 700.000000"
 preserveAspectRatio="xMidYMid meet">
<metadata>
Created by potrace 1.11, written by Peter Selinger 2001-2013
</metadata>
<g transform="translate(0.000000,700.000000) scale(0.100000,-0.100000)"
fill="#000000" stroke="none">
<path d="M3278 6995 c-1 -1 -42 -5 -89 -9 -47 -4 -95 -8 -105 -10 -10 -2 -46
-7 -79 -11 -59 -7 -79 -10 -125 -20 -36 -8 -70 -14 -105 -20 -56 -10 -259 -65
-355 -96 -438 -142 -880 -393 -1220 -692 -138 -122 -321 -312 -420 -438 -28
-35 -56 -71 -63 -79 -111 -137 -279 -412 -371 -605 -145 -302 -257 -659 -300
-950 -2 -16 -8 -50 -12 -75 -7 -48 -8 -59 -21 -190 -15 -161 -8 -588 12 -711
2 -13 6 -46 10 -74 9 -76 16 -116 25 -160 5 -22 11 -53 14 -70 55 -300 211
-714 381 -1010 112 -195 325 -493 429 -601 243 -250 277 -283 456 -427 108
-88 290 -209 440 -293 327 -184 638 -302 1005 -380 237 -51 429 -69 715 -69
278 1 354 7 610 51 604 103 1204 388 1680 799 64 55 315 309 371 375 409 481
679 1057 788 1680 11 63 23 142 27 175 4 33 9 76 11 95 8 70 10 517 3 595 -15
159 -21 210 -25 225 -2 8 -7 35 -10 60 -55 391 -225 854 -452 1234 -72 120
-223 339 -272 394 -9 9 -48 55 -87 102 -100 119 -319 330 -449 434 -115 91
-367 266 -384 266 -5 0 -11 4 -13 8 -4 10 -178 106 -293 161 -287 139 -652
252 -950 297 -27 4 -57 9 -65 10 -8 2 -44 6 -80 10 -36 3 -74 8 -85 11 -22 5
-541 13 -547 8z m492 -499 c35 -4 76 -8 90 -11 14 -2 50 -7 80 -10 30 -4 75
-11 100 -17 25 -5 54 -11 65 -13 11 -1 52 -10 90 -19 39 -9 77 -19 85 -20 33
-8 246 -76 265 -85 11 -5 56 -24 100 -41 189 -76 500 -249 625 -347 175 -138
239 -194 342 -296 173 -172 259 -274 378 -452 160 -239 272 -466 363 -735 33
-99 89 -314 102 -390 3 -19 8 -42 10 -50 2 -8 7 -38 10 -66 3 -28 8 -61 10
-74 25 -128 25 -608 1 -726 -2 -11 -7 -45 -10 -75 -6 -54 -9 -72 -20 -119 -3
-14 -8 -36 -10 -50 -8 -52 -68 -278 -91 -345 -28 -78 -38 -89 -109 -110 -108
-32 -236 -9 -343 62 -29 19 -55 38 -58 42 -2 4 7 43 21 87 84 265 88 514 9
650 -36 61 -83 103 -153 137 -59 27 -70 29 -146 25 -103 -7 -168 -34 -229 -96
-25 -26 -57 -73 -71 -104 -22 -50 -25 -69 -23 -155 6 -192 107 -393 291 -577
l89 -89 -24 -44 c-32 -60 -117 -161 -164 -197 -90 -69 -199 -89 -254 -49 -117
87 -204 331 -247 693 -7 58 -8 315 -1 386 4 39 2 43 -30 58 -22 10 -61 16
-112 16 -168 0 -338 -95 -394 -220 -21 -45 -26 -153 -12 -252 3 -21 7 -57 10
-80 3 -24 8 -55 11 -69 8 -40 -112 -200 -240 -318 -21 -20 -44 -41 -50 -47
-68 -63 -251 -168 -346 -197 -216 -65 -406 -27 -526 106 -43 48 -104 155 -104
185 0 7 13 12 31 12 44 0 141 26 207 57 411 187 646 771 374 930 -165 97 -427
44 -659 -133 -101 -78 -240 -226 -312 -335 -71 -106 -98 -156 -142 -266 -44
-112 -179 -309 -303 -440 -199 -214 -367 -218 -472 -12 -62 123 -121 335 -140
499 -2 19 -6 46 -9 60 -2 14 -7 48 -10 75 -3 28 -8 66 -10 85 -20 156 -21 149
46 287 84 175 128 270 178 388 24 55 47 109 52 120 95 218 222 612 264 820 5
22 9 42 10 45 0 3 4 27 9 53 4 27 9 59 12 70 25 130 25 392 0 507 -3 14 -9 39
-12 55 -11 52 -59 149 -94 188 -52 60 -102 80 -177 74 -77 -6 -133 -37 -222
-121 -158 -152 -328 -493 -446 -892 -37 -129 -101 -398 -111 -474 -3 -25 -7
-47 -9 -50 -2 -3 -6 -27 -9 -55 -4 -27 -9 -66 -11 -85 -3 -19 -7 -57 -11 -85
-3 -27 -7 -61 -10 -75 -27 -167 -20 -814 11 -907 5 -16 -155 -176 -241 -241
-79 -60 -180 -112 -221 -115 -27 -2 -29 1 -70 128 -24 71 -45 139 -47 150 -2
11 -9 38 -15 60 -16 59 -49 232 -56 295 -4 30 -8 57 -10 60 -16 27 -24 436
-12 604 45 616 293 1221 701 1704 264 312 586 567 943 746 70 35 164 78 208
96 44 17 96 38 115 45 108 43 341 107 475 130 17 3 37 8 45 10 8 2 42 7 75 11
33 3 62 8 66 9 3 2 52 7 110 10 57 4 105 8 106 9 5 5 362 -2 423 -8z m-1737
-1148 c76 -40 106 -152 112 -413 5 -249 -21 -444 -101 -744 -60 -226 -169
-524 -284 -776 -77 -168 -83 -176 -86 -107 -1 20 -5 118 -10 217 -13 300 -8
807 10 945 2 14 7 61 10 105 16 187 64 433 111 570 52 150 106 215 176 215 22
0 50 -5 62 -12z m3619 -2013 c37 -15 88 -67 112 -113 25 -48 38 -152 32 -246
-5 -77 -49 -302 -61 -314 -12 -13 -156 183 -207 283 -82 159 -94 297 -31 367
35 39 95 49 155 23z m-2129 -75 c28 -31 31 -45 28 -144 -6 -174 -146 -466
-277 -577 -56 -48 -132 -78 -144 -59 -21 34 -25 299 -7 375 45 185 89 278 167
355 90 90 179 109 233 50z m-2318 -653 c14 -85 67 -281 94 -342 4 -11 19 -45
32 -75 68 -157 174 -286 279 -339 155 -79 326 -57 515 67 105 69 241 196 335
312 25 30 49 60 55 66 5 6 21 27 35 47 14 20 27 37 30 37 3 0 6 -30 8 -67 6
-153 71 -268 196 -347 123 -79 259 -107 481 -101 147 4 170 7 275 32 165 39
367 132 515 238 111 80 242 204 328 312 l65 81 27 -76 c49 -140 131 -279 215
-363 53 -54 166 -127 220 -143 106 -30 144 -37 210 -37 97 0 142 8 213 37 125
50 256 169 361 327 l57 85 58 -24 c83 -33 112 -38 226 -38 82 0 113 5 171 26
l72 25 -24 -53 c-186 -421 -433 -750 -820 -1096 -183 -162 -537 -375 -814
-488 -267 -110 -580 -182 -895 -207 -155 -12 -528 -5 -576 11 -8 3 -36 7 -64
10 -63 6 -201 32 -280 53 -33 8 -71 17 -84 19 -48 9 -289 93 -386 134 -287
121 -589 309 -815 507 -292 255 -554 598 -725 950 -25 51 -45 98 -45 106 0 7
15 18 33 25 90 33 312 218 384 322 19 27 30 18 38 -33z"/>
</g>
</svg>
