<svg xmlns="http://www.w3.org/2000/svg" width="199.99" height="200" viewBox="0 0 199.99 200">
  <defs>
    <style>
      path {
        fill: #000000;
      }

      @media (prefers-color-scheme: dark) {
        path {
          fill: #ffffff;
        }
      }
    </style>
  </defs>
  <path class="a" d="M199.91,96.06A100,100,0,1,0,99.9,200c1.34,0,2.68,0,4-.08A100.13,100.13,0,0,0,200,100C200,98.72,200,97.39,199.91,96.06ZM14.15,103.38A86,86,0,0,1,96.61,14.15c1.15,0,2.29-.07,3.43-.07a85.91,85.91,0,0,1,80.78,115,9.92,9.92,0,0,1-4.85,1.51c-3,.11-6.06-1-9.19-3.58a37.51,37.51,0,0,0,2.71-14.53c-.32-8-5.3-11.33-10.15-11.14a9.6,9.6,0,0,0-9.43,10.08c.25,6.41,4.89,14.36,11.11,19.11-2.68,5.08-6.33,8.9-10.53,9.07-5.49.21-9-13.29-9.46-23.64a76.87,76.87,0,0,1,.3-9.06,7.52,7.52,0,0,0-4.49-1c-5.11.2-11.8,3.61-11.56,9.5a56.88,56.88,0,0,0,1,9c-5.34,8.54-14.22,15.95-23.38,16.31-7.2.29-11.3-3.88-13.1-9.45,12-.48,21.37-13.44,21-22.08-.17-4.59-3.06-7.88-9.61-7.62C90.41,102,78.72,114.13,75,125.77c-6.75,10.82-11.81,15.32-15.59,15.47-6.68.26-9.68-12.6-11.14-29.6C60.93,86.75,66.1,67.93,65.63,56.14c-.38-9.69-3.86-14.66-8.31-14.49-12.71.5-25.78,38.26-24.58,68.38.15,3.75.43,7.23.86,10.45-4.28,5-9.13,9.14-13.9,10.18A86.18,86.18,0,0,1,14.15,103.38Zm149.63,20.76c-4.38-4.67-7.77-10.83-7.93-14.9-.12-3.27,1.51-4.91,3.61-5,2.75-.11,6,2.52,6.22,8A36.93,36.93,0,0,1,163.78,124.14Zm-74.41,5.3a25.72,25.72,0,0,1-.57-4.57c-.36-9,3.72-18.76,9.87-19,2-.08,2.81,1.47,2.9,3.69C101.82,116.1,95.65,129.19,89.37,129.44ZM48,107.33c-.28-3.79-.44-7.85-.6-11.91-.93-23.57,2.43-48.36,8.71-48.61,3.54-.14,5,2.7,5.31,11.73C61.81,69.28,58.42,86.07,48,107.33Zm55.41,78.51a86.06,86.06,0,0,1-82.19-51.52c3.28-1.21,7.56-4.18,12.9-10.53,2.77,16.41,9.25,25,17.73,24.7,6.44-.25,14-5.71,22-16.76a16.74,16.74,0,0,0,0,1.87c.3,7.72,5.91,13.79,20.19,13.23,12.46-.49,25.09-7.67,33.1-19.19,3.13,11.19,10.13,18.28,20.49,17.86,6.94-.27,12.75-5.87,16.66-13a16.66,16.66,0,0,0,8.61,2,16,16,0,0,0,6.52-1.72A86,86,0,0,1,103.38,185.84Z"/>
</svg>